<svg xmlns="http://www.w3.org/2000/svg" viewBox="0 0 420 500" role="img" aria-label="Mira Glow skin supplement bottle">
  <defs>
    <linearGradient id="gGlass" x1="0" y1="0" x2="1" y2="0">
      <stop offset="0" stop-color="#FBE7EC"/><stop offset=".5" stop-color="#FEF9F6"/><stop offset="1" stop-color="#F3D2DC"/>
    </linearGradient>
    <linearGradient id="gCap" x1="0" y1="0" x2="0" y2="1">
      <stop offset="0" stop-color="#EC93B2"/><stop offset="1" stop-color="#E07A9F"/>
    </linearGradient>
  </defs>
  <ellipse cx="210" cy="472" rx="118" ry="17" fill="#4A2E4D" opacity=".10"/>
  <rect x="150" y="118" width="120" height="52" rx="12" fill="url(#gGlass)" stroke="#EFC6D3" stroke-width="2"/>
  <rect x="138" y="66" width="144" height="70" rx="17" fill="url(#gCap)"/>
  <rect x="138" y="66" width="144" height="17" rx="8.5" fill="#F2A9C4" opacity=".6"/>
  <rect x="94" y="150" width="232" height="312" rx="32" fill="url(#gGlass)" stroke="#EFC6D3" stroke-width="2"/>
  <rect x="110" y="172" width="24" height="266" rx="12" fill="#FFFFFF" opacity=".55"/>
  <path d="M112 244 h196 v182 a14 14 0 0 1 -14 14 h-168 a14 14 0 0 1 -14 -14 Z" fill="#FFFFFF" stroke="#F2D4DD" stroke-width="1.5"/>
  <path d="M126 244 h168 a14 14 0 0 1 14 14 v30 h-196 v-30 a14 14 0 0 1 14 -14 Z" fill="#E07A9F"/>
  <text x="210" y="274" text-anchor="middle" font-family="Georgia, serif" font-size="17" letter-spacing="4" fill="#FFFFFF">MIRA</text>
  <text x="210" y="330" text-anchor="middle" font-family="Georgia, serif" font-size="33" fill="#4A2E4D">Glow</text>
  <text x="210" y="356" text-anchor="middle" font-family="-apple-system, 'Segoe UI', sans-serif" font-size="12.5" letter-spacing="2.5" fill="#8A7A8C">SKIN + HYDRATION</text>
  <line x1="150" y1="374" x2="270" y2="374" stroke="#F2D4DD" stroke-width="1.5"/>
  <text x="210" y="400" text-anchor="middle" font-family="-apple-system, sans-serif" font-size="12.5" letter-spacing="1" fill="#6E8F7A">Ceramides + Hyaluronic acid</text>
  <text x="210" y="422" text-anchor="middle" font-family="-apple-system, sans-serif" font-size="11.5" letter-spacing="1.5" fill="#A695A0">30-DAY SUPPLY · VEGAN</text>
</svg>
