<svg xmlns="http://www.w3.org/2000/svg" viewBox="0 0 420 500" role="img" aria-label="Mira Prenatal supplement bottle">
  <defs>
    <linearGradient id="pGlass" x1="0" y1="0" x2="1" y2="0">
      <stop offset="0" stop-color="#F8ECEF"/><stop offset=".5" stop-color="#FBF7F4"/><stop offset="1" stop-color="#EAD9E0"/>
    </linearGradient>
    <linearGradient id="pCap" x1="0" y1="0" x2="0" y2="1">
      <stop offset="0" stop-color="#6B4A6E"/><stop offset="1" stop-color="#4A2E4D"/>
    </linearGradient>
    <linearGradient id="pLabel" x1="0" y1="0" x2="0" y2="1">
      <stop offset="0" stop-color="#FFFFFF"/><stop offset="1" stop-color="#FCF8F5"/>
    </linearGradient>
    <radialGradient id="pBead" cx=".35" cy=".3" r=".85">
      <stop offset="0" stop-color="#F6C7D9"/><stop offset="1" stop-color="#E07A9F"/>
    </radialGradient>
  </defs>
  <ellipse cx="210" cy="472" rx="118" ry="17" fill="#4A2E4D" opacity=".10"/>
  <rect x="150" y="118" width="120" height="52" rx="12" fill="url(#pGlass)" stroke="#E3CBD4" stroke-width="2"/>
  <rect x="138" y="66" width="144" height="70" rx="17" fill="url(#pCap)"/>
  <rect x="138" y="66" width="144" height="17" rx="8.5" fill="#7C5A80" opacity=".55"/>
  <rect x="94" y="150" width="232" height="312" rx="32" fill="url(#pGlass)" stroke="#E3CBD4" stroke-width="2"/>
  <rect x="110" y="172" width="24" height="266" rx="12" fill="#FFFFFF" opacity=".5"/>
  <g>
    <path d="M112 244 h196 v182 a14 14 0 0 1 -14 14 h-168 a14 14 0 0 1 -14 -14 Z" fill="url(#pLabel)" stroke="#EAD9E0" stroke-width="1.5"/>
    <path d="M126 244 h168 a14 14 0 0 1 14 14 v30 h-196 v-30 a14 14 0 0 1 14 -14 Z" fill="#E07A9F"/>
    <text x="210" y="274" text-anchor="middle" font-family="Georgia, serif" font-size="17" letter-spacing="4" fill="#FFFFFF">MIRA</text>
    <text x="210" y="330" text-anchor="middle" font-family="Georgia, serif" font-size="33" fill="#4A2E4D">Prenatal</text>
    <text x="210" y="356" text-anchor="middle" font-family="-apple-system, 'Segoe UI', sans-serif" font-size="12.5" letter-spacing="2.5" fill="#8A7A8C">MULTIVITAMIN + DHA</text>
    <line x1="150" y1="374" x2="270" y2="374" stroke="#EAD9E0" stroke-width="1.5"/>
    <text x="210" y="400" text-anchor="middle" font-family="-apple-system, sans-serif" font-size="12.5" letter-spacing="1" fill="#6E8F7A">12 traceable nutrients</text>
    <text x="210" y="422" text-anchor="middle" font-family="-apple-system, sans-serif" font-size="11.5" letter-spacing="1.5" fill="#A6959F">30-DAY SUPPLY · VEGAN</text>
  </g>
  <g transform="translate(322 250) rotate(24)">
    <rect x="-22" y="-13" width="44" height="26" rx="13" fill="#FDF6F0" stroke="#E3CBD4" stroke-width="1.5"/>
    <path d="M0 -13 h9 a13 13 0 0 1 13 13 a13 13 0 0 1 -13 13 h-9 Z" fill="#F3D9DE" opacity=".7"/>
    <circle cx="-6" cy="0" r="6.5" fill="url(#pBead)"/>
  </g>
</svg>
